# xmcd CD database file
#
# Track frame offsets:
#	150
#	26924
#	46451
#	68183
#	82543
#	110708
#	139371
#	171962
#	197815
#	232261
#	261978
#	291737
#	312004
#
# Disc length: 4354 seconds
#
# Revision: 0
# Processed by: cddbd v1.5.2PL0 Copyright (c) Steve Scherf et al.
# Submitted via: CDex 1.50
#
DISCID=cb11000d
DTITLE=Klezmocrazy - Reach
DYEAR=2010
DGENRE=Jazz
TTITLE0=Columbia, The Headwaters
TTITLE1=Have Netze
TTITLE2=First
TTITLE3=Mideast Midwest
TTITLE4=The Grin File
TTITLE5=Adventures of a Soliloquy
TTITLE6=Slow Beginnings
TTITLE7=Resolution
TTITLE8=Tales of Ivan
TTITLE9=Jovano Jovanke
TTITLE10=Not Enough Air
TTITLE11=My I Am
TTITLE12=V'David
EXTD=YEAR: 2010
EXTT0=
EXTT1=
EXTT2=
EXTT3=
EXTT4=
EXTT5=
EXTT6=
EXTT7=
EXTT8=
EXTT9=
EXTT10=
EXTT11=
EXTT12=
PLAYORDER=
